<svg width="22" height="22" viewBox="0 0 22 22" fill="none" xmlns="http://www.w3.org/2000/svg">
<path d="M11 1C13.5991 3.29619 16.9913 4.49174 20.458 4.33333C20.9627 6.04779 21.1171 7.84607 20.9121 9.62131C20.7071 11.3966 20.1468 13.1125 19.2645 14.6673C18.3822 16.222 17.196 17.5838 15.7762 18.6716C14.3565 19.7595 12.7322 20.5513 11 21C9.26776 20.5513 7.64351 19.7595 6.22378 18.6716C4.80405 17.5838 3.6178 16.222 2.73552 14.6673C1.85324 13.1125 1.29294 11.3966 1.08792 9.62131C0.882895 7.84607 1.03733 6.04779 1.54204 4.33333C5.00869 4.49174 8.40092 3.29619 11 1Z" stroke="currentColor" stroke-width="2" stroke-linecap="round" stroke-linejoin="round"/>
</svg>
