<svg width="15" height="15" viewBox="0 0 15 15" fill="none" xmlns="http://www.w3.org/2000/svg">
<path fill-rule="evenodd" clip-rule="evenodd" d="M5.01256 2.49478C5.80117 2.16813 6.64641 2 7.5 2C8.35359 2 9.19883 2.16813 9.98744 2.49478C10.7761 2.82144 11.4926 3.30023 12.0962 3.90381C12.6998 4.50739 13.1786 5.22394 13.5052 6.01256C13.8319 6.80117 14 7.64641 14 8.5C14 9.35359 13.8319 10.1988 13.5052 10.9874C13.1786 11.7761 12.6998 12.4926 12.0962 13.0962C11.4926 13.6998 10.7761 14.1786 9.98744 14.5052C9.19883 14.8319 8.35359 15 7.5 15C6.64641 15 5.80117 14.8319 5.01256 14.5052C4.22394 14.1786 3.50739 13.6998 2.90381 13.0962C2.30023 12.4926 1.82144 11.7761 1.49478 10.9874C1.16813 10.1988 1 9.35359 1 8.5C1 7.64641 1.16813 6.80117 1.49478 6.01256C1.82144 5.22394 2.30023 4.50739 2.90381 3.90381C3.50739 3.30023 4.22394 2.82144 5.01256 2.49478ZM7.5 3C6.77773 3 6.06253 3.14226 5.39524 3.41866C4.72795 3.69506 4.12163 4.10019 3.61091 4.61091C3.10019 5.12164 2.69506 5.72795 2.41866 6.39524C2.14226 7.06253 2 7.77773 2 8.5C2 9.22227 2.14226 9.93747 2.41866 10.6048C2.69506 11.272 3.10019 11.8784 3.61091 12.3891C4.12164 12.8998 4.72795 13.3049 5.39524 13.5813C6.06253 13.8577 6.77773 14 7.5 14C8.22227 14 8.93747 13.8577 9.60476 13.5813C10.272 13.3049 10.8784 12.8998 11.3891 12.3891C11.8998 11.8784 12.3049 11.272 12.5813 10.6048C12.8577 9.93747 13 9.22227 13 8.5C13 7.77773 12.8577 7.06253 12.5813 6.39524C12.3049 5.72795 11.8998 5.12164 11.3891 4.61091C10.8784 4.10019 10.272 3.69506 9.60476 3.41866C8.93747 3.14226 8.22227 3 7.5 3Z" fill="#808080"/>
<path fill-rule="evenodd" clip-rule="evenodd" d="M7.5 5C7.77614 5 8 5.22386 8 5.5V8H9.5C9.77614 8 10 8.22386 10 8.5C10 8.77614 9.77614 9 9.5 9H7.5C7.22386 9 7 8.77614 7 8.5V5.5C7 5.22386 7.22386 5 7.5 5Z" fill="#808080"/>
<path fill-rule="evenodd" clip-rule="evenodd" d="M2.85355 0.146447C3.04882 0.341709 3.04882 0.658291 2.85355 0.853553L0.853553 2.85355C0.658291 3.04882 0.341709 3.04882 0.146447 2.85355C-0.0488155 2.65829 -0.0488155 2.34171 0.146447 2.14645L2.14645 0.146447C2.34171 -0.0488155 2.65829 -0.0488155 2.85355 0.146447Z" fill="#808080"/>
<path fill-rule="evenodd" clip-rule="evenodd" d="M12.1464 0.146447C12.3417 -0.0488155 12.6583 -0.0488155 12.8536 0.146447L14.8536 2.14645C15.0488 2.34171 15.0488 2.65829 14.8536 2.85355C14.6583 3.04882 14.3417 3.04882 14.1464 2.85355L12.1464 0.853553C11.9512 0.658291 11.9512 0.341709 12.1464 0.146447Z" fill="#808080"/>
</svg>
