<svg width="25" height="28" viewBox="0 0 25 28" fill="none" xmlns="http://www.w3.org/2000/svg">
<g clip-path="url(#clip0_124_175)">
<path d="M6.94445 14C7.3128 14 7.66607 14.1475 7.92654 14.4101C8.18701 14.6726 8.33334 15.0287 8.33334 15.4V21C8.33334 21.3713 8.18701 21.7274 7.92654 21.99C7.66607 22.2525 7.3128 22.4 6.94445 22.4C6.57609 22.4 6.22282 22.2525 5.96235 21.99C5.70189 21.7274 5.55556 21.3713 5.55556 21V15.4C5.55556 15.0287 5.70189 14.6726 5.96235 14.4101C6.22282 14.1475 6.57609 14 6.94445 14Z" fill="#404040"/>
<path d="M12.5 14C12.8684 14 13.2216 14.1475 13.4821 14.4101C13.7426 14.6726 13.8889 15.0287 13.8889 15.4V21C13.8889 21.3713 13.7426 21.7274 13.4821 21.99C13.2216 22.2525 12.8684 22.4 12.5 22.4C12.1316 22.4 11.7784 22.2525 11.5179 21.99C11.2574 21.7274 11.1111 21.3713 11.1111 21V15.4C11.1111 15.0287 11.2574 14.6726 11.5179 14.4101C11.7784 14.1475 12.1316 14 12.5 14Z" fill="#404040"/>
<path d="M18.0556 14C18.4239 14 18.7772 14.1475 19.0377 14.4101C19.2981 14.6726 19.4444 15.0287 19.4444 15.4V21C19.4444 21.3713 19.2981 21.7274 19.0377 21.99C18.7772 22.2525 18.4239 22.4 18.0556 22.4C17.6872 22.4 17.3339 22.2525 17.0735 21.99C16.813 21.7274 16.6667 21.3713 16.6667 21V15.4C16.6667 15.0287 16.813 14.6726 17.0735 14.4101C17.3339 14.1475 17.6872 14 18.0556 14Z" fill="#404040"/>
<path d="M18.0556 0C18.3957 4.52348e-05 18.7241 0.125939 18.9783 0.353801C19.2325 0.581664 19.3949 0.895648 19.4347 1.2362L19.4444 1.4V2.8H20.8333C21.8961 2.79994 22.9188 3.20925 23.692 3.9442C24.4653 4.67914 24.9307 5.68415 24.9931 6.7536L25 7V23.8C25.0001 24.8713 24.594 25.9021 23.8649 26.6816C23.1358 27.461 22.1387 27.9302 21.0778 27.993L20.8333 28H4.16667C3.10387 28.0001 2.08123 27.5907 1.30797 26.8558C0.534713 26.1209 0.0692951 25.1159 0.00694461 24.0464L6.47284e-09 23.8V7C-5.91968e-05 5.9287 0.406007 4.89788 1.13512 4.11843C1.86423 3.33899 2.86126 2.86985 3.92222 2.807L4.16667 2.8H5.55556V1.4C5.55595 1.04317 5.6915 0.699955 5.93451 0.440484C6.17752 0.181014 6.50966 0.024871 6.86305 0.00395904C7.21644 -0.0169529 7.56442 0.0989444 7.83588 0.327971C8.10734 0.556997 8.2818 0.881866 8.32361 1.2362L8.33333 1.4V2.8H16.6667V1.4C16.6667 1.0287 16.813 0.672601 17.0735 0.41005C17.3339 0.1475 17.6872 0 18.0556 0ZM22.2222 9.8H2.77778V23.275C2.77778 24.262 3.31389 25.0754 4.00417 25.1874L4.16667 25.2H20.8333C21.5458 25.2 22.1333 24.458 22.2125 23.499L22.2222 23.275V9.8Z" fill="currentColor"/>
</g>
<defs>
<clipPath id="clip0_124_175">
<rect width="25" height="28" fill="currentColor"/>
</clipPath>
</defs>
</svg>
