<svg width="12" height="14" viewBox="0 0 12 14" fill="none" xmlns="http://www.w3.org/2000/svg">
<path d="M8.66667 0C8.82996 2.26174e-05 8.98756 0.0629693 9.10958 0.176901C9.2316 0.290832 9.30956 0.447824 9.32867 0.6181L9.33333 0.7V1.4H10C10.5101 1.39997 11.001 1.60463 11.3722 1.9721C11.7433 2.33957 11.9667 2.84207 11.9967 3.3768L12 3.5V11.9C12 12.4356 11.8051 12.9511 11.4551 13.3408C11.1052 13.7305 10.6266 13.9651 10.1173 13.9965L10 14H2C1.48986 14 0.99899 13.7954 0.627826 13.4279C0.256662 13.0604 0.0332617 12.5579 0.00333341 12.0232L3.10696e-09 11.9V3.5C-2.84145e-05 2.96435 0.194883 2.44894 0.544856 2.05922C0.894828 1.6695 1.3734 1.43492 1.88267 1.4035L2 1.4H2.66667V0.7C2.66686 0.521584 2.73192 0.349977 2.84857 0.220242C2.96521 0.0905069 3.12464 0.0124355 3.29426 0.00197952C3.46389 -0.00847647 3.63092 0.0494722 3.76122 0.163985C3.89152 0.278499 3.97526 0.440933 3.99533 0.6181L4 0.7V1.4H8V0.7C8 0.514348 8.07024 0.336301 8.19526 0.205025C8.32029 0.0737498 8.48986 0 8.66667 0ZM10.6667 4.9H1.33333V11.6375C1.33333 12.131 1.59067 12.5377 1.922 12.5937L2 12.6H10C10.342 12.6 10.624 12.229 10.662 11.7495L10.6667 11.6375V4.9Z" fill="white"/>
</svg>
