<svg width="13" height="14" viewBox="0 0 13 14" fill="none" xmlns="http://www.w3.org/2000/svg">
<path d="M4.29997 6.13333L8.69997 3.86666M4.29997 7.86666L8.69997 10.1333M0.5 7C0.5 7.53043 0.710714 8.03914 1.08579 8.41421C1.46086 8.78929 1.96957 9 2.5 9C3.03043 9 3.53914 8.78929 3.91421 8.41421C4.28929 8.03914 4.5 7.53043 4.5 7C4.5 6.46957 4.28929 5.96086 3.91421 5.58579C3.53914 5.21071 3.03043 5 2.5 5C1.96957 5 1.46086 5.21071 1.08579 5.58579C0.710714 5.96086 0.5 6.46957 0.5 7ZM8.5 3C8.5 3.53043 8.71071 4.03914 9.08579 4.41421C9.46086 4.78929 9.96957 5 10.5 5C11.0304 5 11.5391 4.78929 11.9142 4.41421C12.2893 4.03914 12.5 3.53043 12.5 3C12.5 2.46957 12.2893 1.96086 11.9142 1.58579C11.5391 1.21071 11.0304 1 10.5 1C9.96957 1 9.46086 1.21071 9.08579 1.58579C8.71071 1.96086 8.5 2.46957 8.5 3ZM8.5 11C8.5 11.5304 8.71071 12.0391 9.08579 12.4142C9.46086 12.7893 9.96957 13 10.5 13C11.0304 13 11.5391 12.7893 11.9142 12.4142C12.2893 12.0391 12.5 11.5304 12.5 11C12.5 10.4696 12.2893 9.96086 11.9142 9.58579C11.5391 9.21071 11.0304 9 10.5 9C9.96957 9 9.46086 9.21071 9.08579 9.58579C8.71071 9.96086 8.5 10.4696 8.5 11Z" stroke="white" stroke-linecap="round" stroke-linejoin="round"/>
</svg>
