<svg width="24" height="24" viewBox="0 0 24 24" fill="none" xmlns="http://www.w3.org/2000/svg">
<circle cx="12" cy="12" r="12" fill="#5A199A"/>
<path d="M8 18V16.6667C8 15.9594 8.28095 15.2811 8.78105 14.781C9.28115 14.281 9.95942 14 10.6667 14H13.3333C14.0406 14 14.7189 14.281 15.219 14.781C15.719 15.2811 16 15.9594 16 16.6667V18M9.33333 8.66667C9.33333 9.37391 9.61428 10.0522 10.1144 10.5523C10.6145 11.0524 11.2928 11.3333 12 11.3333C12.7072 11.3333 13.3855 11.0524 13.8856 10.5523C14.3857 10.0522 14.6667 9.37391 14.6667 8.66667C14.6667 7.95942 14.3857 7.28115 13.8856 6.78105C13.3855 6.28095 12.7072 6 12 6C11.2928 6 10.6145 6.28095 10.1144 6.78105C9.61428 7.28115 9.33333 7.95942 9.33333 8.66667Z" stroke="white" stroke-linecap="round" stroke-linejoin="round"/>
</svg>
