<svg width="29" height="28" viewBox="0 0 29 28" fill="currentColor" xmlns="http://www.w3.org/2000/svg">
<path d="M28.4927 13.9727C28.4927 14.957 27.7634 15.7281 26.937 15.7281H25.3813L25.4153 24.4891C25.4153 24.6367 25.4056 24.7844 25.391 24.932V25.8125C25.391 27.0211 24.5208 28 23.4464 28H22.6686C22.6151 28 22.5616 28 22.5081 27.9945C22.4401 28 22.372 28 22.3039 28H20.7239H19.5572C18.4828 28 17.6126 27.0211 17.6126 25.8125V24.5V21C17.6126 20.032 16.9174 19.25 16.0569 19.25H12.9455C12.085 19.25 11.3898 20.032 11.3898 21V24.5V25.8125C11.3898 27.0211 10.5196 28 9.44521 28H8.27844H6.72761C6.65469 28 6.58177 27.9945 6.50884 27.9891C6.45051 27.9945 6.39217 28 6.33383 28H5.55599C4.48159 28 3.61138 27.0211 3.61138 25.8125V19.6875C3.61138 19.6383 3.61138 19.5836 3.61624 19.5344V15.7281H2.05569C1.18061 15.7281 0.5 14.9625 0.5 13.9727C0.5 13.4805 0.645846 13.043 0.986152 12.6602L13.4511 0.4375C13.7914 0.0546875 14.1803 0 14.5206 0C14.8609 0 15.2499 0.109375 15.5416 0.382812L27.9579 12.6602C28.3468 13.043 28.5413 13.4805 28.4927 13.9727Z" fill="currentColor"/>
</svg>
