<svg width="128" height="45" viewBox="0 0 128 45" fill="none" xmlns="http://www.w3.org/2000/svg">
<g clip-path="url(#clip0_28_134)">
<path d="M63.4416 0H72.0206V3.60322H70.3616L64.9564 20.5914H59.6675L54.243 3.60322L57.0402 8.29589H54.4581L57.1069 3.60322L51.4608 20.5914H46.1998L40.7882 3.60322H39.1357V0H48.3064V3.60322H45.3197L50.4688 20.5998L47.3983 15.9792H50.6754L47.7297 20.5914L53.5394 3.59474H50.8282V0H61.0037V3.60322H58.3872L64.1431 20.5914L60.9908 15.9792H64.3647L61.4168 20.5914L66.5961 3.60322H63.4416V0Z" fill="#202020"/>
<path d="M79.4978 20.9029C77.8195 20.9029 76.3671 20.5751 75.1406 19.9195C73.9503 19.2987 72.9676 18.3521 72.3111 17.1937C71.6315 15.9588 71.2896 14.571 71.3191 13.1666C71.2896 11.7467 71.6312 10.3431 72.3111 9.09072C72.9575 7.92814 73.9281 6.97205 75.1083 6.33531C76.3104 5.67684 77.7284 5.3469 79.3623 5.34549C80.9962 5.34407 82.4077 5.67402 83.5969 6.33531C84.7634 6.97351 85.7177 7.93043 86.3447 9.09072C87.0091 10.3546 87.3405 11.7627 87.3086 13.1857V13.8385C87.3103 13.9972 87.301 14.1558 87.2807 14.3133H83.1493C83.1779 14.1109 83.1944 13.9071 83.1988 13.7028C83.1988 13.4909 83.1988 13.2599 83.1988 12.997C83.2154 12.2436 83.0649 11.4956 82.7577 10.8054C82.485 10.2015 82.0355 9.69151 81.4667 9.34082C80.8487 8.97913 80.1389 8.79828 79.4204 8.81942C78.7082 8.80362 78.0064 8.98896 77.3978 9.35354C76.8103 9.7214 76.3438 10.2493 76.0551 10.8733C75.7234 11.595 75.5609 12.381 75.5795 13.173C75.565 13.9074 75.7303 14.6344 76.0615 15.2925C76.366 15.89 76.836 16.3904 77.4171 16.7359C78.0542 17.0992 78.7814 17.2805 79.5172 17.2594C80.2725 17.2783 81.0179 17.0881 81.6689 16.7105C82.2539 16.3603 82.721 15.8479 83.0116 15.2374L87.059 16.4053C86.5042 17.7813 85.5055 18.9394 84.2166 19.7011C82.8969 20.5037 81.3239 20.9043 79.4978 20.9029ZM73.9765 14.2984V11.755H84.8148L85.2688 14.2984H73.9765Z" fill="#202020"/>
<path d="M50.5248 44.9937C49.0365 45.0107 47.5587 44.7459 46.1718 44.2137C44.8882 43.7183 43.7231 42.9655 42.7506 42.003C41.781 41.0334 41.0218 39.8795 40.5192 38.6117C39.4703 35.8484 39.4634 32.806 40.4999 30.0382C40.9845 28.7942 41.716 27.6579 42.6516 26.6956C43.5671 25.7606 44.6649 25.0173 45.8792 24.5104C47.1354 23.9897 48.4863 23.7272 49.8491 23.7389C51.0208 23.7063 52.1838 23.9451 53.2446 24.4362C54.1774 24.8962 54.9564 25.6106 55.4888 26.4943C56.0839 27.5162 56.4507 28.6514 56.5647 29.8241H57.5846L56.7239 32.3061C56.4063 30.9929 55.6312 29.831 54.5335 29.0229C53.4787 28.3005 52.2415 27.8798 50.9589 27.8076C49.6763 27.7354 48.3985 28.0145 47.2671 28.6138C46.321 29.1587 45.5482 29.953 45.0357 30.9072C44.4843 31.9537 44.2076 33.1196 44.231 34.2984C44.2197 35.2136 44.3757 36.1232 44.6914 36.9839C44.9765 37.767 45.4152 38.4871 45.9825 39.1034C46.5376 39.6947 47.2168 40.1597 47.9728 40.4663C48.7816 40.7897 49.6477 40.9511 50.5205 40.9411C51.5128 40.957 52.4954 40.7459 53.3909 40.3243C54.2327 39.9203 54.9617 39.3201 55.5147 38.5757C56.0897 37.7898 56.4754 36.8852 56.6422 35.9305L61.0446 36.6681C60.7782 38.2585 60.1289 39.763 59.1511 41.0555C58.1934 42.3073 56.9369 43.3069 55.4931 43.9657C53.9355 44.6689 52.238 45.0201 50.5248 44.9937ZM56.7218 32.2976V23.2217H61.0252V32.2976H56.7218Z" fill="#202020"/>
<path d="M69.2255 41.2633H71.4977V44.6545H62.6756V41.2633H65.0425V26.613H62.6756V23.2217H69.2298L69.2255 41.2633Z" fill="#202020"/>
<path d="M81.1654 44.9682C79.4857 44.9682 78.0325 44.6404 76.806 43.9847C75.6165 43.3619 74.6342 42.4149 73.9765 41.2569C73.2978 40.0216 72.9561 38.634 72.9846 37.2298C72.9561 35.8099 73.2976 34.4066 73.9765 33.1539C74.622 31.9907 75.5929 31.0343 76.7738 30.3985C77.9759 29.7372 79.3946 29.4065 81.0299 29.4065C82.6652 29.4065 84.0767 29.7372 85.2645 30.3985C86.4312 31.0365 87.3855 31.9934 88.0122 33.1539C88.676 34.4188 89.0074 35.8274 88.9762 37.2509V37.9016C88.9768 38.0603 88.9675 38.2189 88.9482 38.3764H84.8169C84.8448 38.174 84.8606 37.9702 84.8643 37.766C84.8643 37.5583 84.8643 37.323 84.8643 37.0602C84.8832 36.3076 84.7364 35.5599 84.4339 34.8686C84.161 34.2648 83.7115 33.7549 83.1429 33.404C82.5256 33.0424 81.8166 32.8615 81.0987 32.8826C80.3856 32.8665 79.6828 33.0527 79.074 33.4188C78.4861 33.7854 78.0196 34.3127 77.7313 34.9364C77.3995 35.6531 77.2341 36.4337 77.2471 37.2213C77.2336 37.9556 77.3989 38.6824 77.7291 39.3408C78.0356 39.9382 78.506 40.439 79.0869 40.7863C79.7415 41.1331 80.4741 41.3123 81.2174 41.3075C81.9607 41.3027 82.6909 41.114 83.3408 40.7588C83.9272 40.4102 84.3947 39.8974 84.6835 39.2857L88.7331 40.4536C88.1774 41.8297 87.1779 42.9878 85.8885 43.7495C84.5673 44.562 82.993 44.9682 81.1654 44.9682ZM75.6419 38.3637V35.8203H86.4802L86.9299 38.3637H75.6419Z" fill="#202020"/>
<path d="M96.0511 44.9343C94.4631 44.9343 93.2603 44.5726 92.4426 43.8491C91.625 43.1256 91.2169 42.104 91.2183 40.7842C91.2183 39.4998 91.6264 38.5206 92.4426 37.8465C93.2589 37.1725 94.5399 36.6822 96.2856 36.3756L102.138 35.2904V37.2976L97.4971 38.2747C96.8358 38.4019 96.3538 38.6138 96.0511 38.9106C95.8973 39.0701 95.7779 39.2586 95.6999 39.4648C95.6218 39.6709 95.5869 39.8904 95.5971 40.1102C95.5814 40.3392 95.6199 40.5686 95.7096 40.7805C95.7992 40.9923 95.9374 41.1808 96.1135 41.3311C96.4578 41.6137 96.9512 41.755 97.5939 41.755C98.2961 41.7631 98.9862 41.575 99.5842 41.2124C100.19 40.835 100.674 40.2963 100.981 39.6588C101.34 38.8968 101.514 38.0631 101.491 37.2234L102.179 40.4027H101.243C101.041 41.9132 100.494 43.0437 99.6036 43.794C98.7128 44.5443 97.5286 44.9244 96.0511 44.9343ZM103.253 44.663C102.995 44.6792 102.736 44.6398 102.495 44.5475C102.254 44.4553 102.036 44.3124 101.856 44.1289C101.529 43.7707 101.368 43.2662 101.368 42.6155V39.3917L101.656 38.8491L101.491 37.2213L101.368 36.312V35.1335C101.384 34.6871 101.269 34.2457 101.037 33.8618C100.809 33.5155 100.473 33.2515 100.079 33.1094C99.5972 32.935 99.0862 32.8516 98.5729 32.8635C97.8663 32.8333 97.166 33.0056 96.5568 33.3595C96.289 33.5394 96.0611 33.771 95.8869 34.0403C95.7127 34.3095 95.5958 34.6108 95.5433 34.9258L91.6852 34.3366C91.8173 33.362 92.1912 32.4345 92.774 31.6363C93.3796 30.8627 94.196 30.2746 95.128 29.9406C96.1322 29.5521 97.3945 29.3578 98.9151 29.3578C100.144 29.3275 101.368 29.5134 102.53 29.9067C103.451 30.2221 104.242 30.8249 104.783 31.6236C105.296 32.4007 105.553 33.4047 105.553 34.6354V41.2548H107.371V44.6587L103.253 44.663Z" fill="#202020"/>
<path d="M115.69 41.2632H117.627V44.6545H109.134V41.2632H111.501V33.0988H109.134V29.7075H115.69V41.2632ZM121.624 41.2632V35.5256C121.624 34.6778 121.42 34.0017 121.011 33.4972C120.602 32.997 120 32.7448 119.202 32.7448C118.554 32.7356 117.92 32.9277 117.39 33.2938C116.835 33.6953 116.404 34.2404 116.144 34.8686C115.824 35.6408 115.669 36.47 115.69 37.3039L114.958 34.1691H115.841C115.944 33.2316 116.257 32.3283 116.757 31.5239C117.194 30.8411 117.814 30.2898 118.547 29.9301C119.332 29.5615 120.192 29.3779 121.061 29.3938C122.593 29.3938 123.768 29.8347 124.585 30.7164C125.403 31.5981 125.812 32.8621 125.812 34.5083V41.2632H128V44.6545H119.684V41.2632H121.624Z" fill="#202020"/>
<path d="M31.7832 29.7075C31.808 31.8149 31.4215 33.9073 30.6449 35.8711C29.9218 37.6899 28.8227 39.3406 27.4174 40.7185C26.0037 42.0933 24.3195 43.1687 22.4684 43.8788C20.4644 44.6443 18.3302 45.0249 16.181 45C14.054 45.0262 11.9412 44.6558 9.95391 43.9084C8.13656 43.2211 6.47673 42.1835 5.07163 40.8563C3.70695 39.5615 2.62161 38.0086 1.88061 36.2908C1.1201 34.5101 0.736443 32.5952 0.753105 30.6634C0.753105 28.7926 1.09308 27.1902 1.77303 25.8563C2.441 24.5374 3.47804 23.4342 4.76178 22.677C6.07577 21.8899 7.69674 21.3798 9.62469 21.1467V19.7117L13.2482 20.9411C11.3329 21.3868 9.63703 22.4804 8.4563 24.0314C7.26568 25.5914 6.67036 27.4643 6.67036 29.6503C6.63693 31.2822 7.05018 32.8929 7.86673 34.3133C8.66111 35.6541 9.82098 36.7489 11.2148 37.4735C12.7416 38.2555 14.4433 38.6476 16.1638 38.6138C17.4997 38.6285 18.8275 38.4074 20.0843 37.961C21.2228 37.5548 22.2691 36.9318 23.1634 36.1276C24.0278 35.3424 24.7072 34.3802 25.1537 33.3086C25.6254 32.1648 25.861 30.9399 25.8466 29.7054C25.872 28.3032 25.5687 26.9142 24.9601 25.6465C24.3712 24.4599 23.4974 23.4326 22.4146 22.6537C21.2639 21.8371 19.9392 21.2898 18.5415 21.0534L19.6173 14.8114C21.943 15.1854 24.1439 16.1026 26.0359 17.4862C27.8591 18.8419 29.3174 20.6168 30.2835 22.6558C31.2833 24.7442 31.7832 27.0948 31.7832 29.7075ZM13.2482 20.9305H1.22864V14.8368H13.2482V20.9305Z" fill="#5A189A"/>
<path d="M26.3372 3.21958V0H31.2862V12.5053H26.3372V9.14794H4.94898V12.5053H0V3.21958H26.3372Z" fill="#5A189A"/>
<path d="M0 11.3099L0 20.9305H4.95113L4.95113 11.3099H0Z" fill="#5A189A"/>
</g>
<defs>
<clipPath id="clip0_28_134">
<rect width="128" height="45" fill="white"/>
</clipPath>
</defs>
</svg>
