<svg width="20" height="28" viewBox="0 0 20 28" fill="none" xmlns="http://www.w3.org/2000/svg">
<path d="M10 0C11.4127 0 12.7937 0.410543 13.9684 1.17971C15.143 1.94888 16.0585 3.04213 16.5991 4.32122C17.1398 5.6003 17.2812 7.00776 17.0056 8.36563C16.73 9.7235 16.0497 10.9708 15.0508 11.9497C14.0518 12.9287 12.7791 13.5954 11.3935 13.8655C10.0079 14.1356 8.57173 13.997 7.26655 13.4672C5.96136 12.9373 4.8458 12.0401 4.06093 10.889C3.27606 9.73785 2.85714 8.38447 2.85714 7L2.86429 6.6962C2.94417 4.89405 3.73087 3.19169 5.06032 1.94412C6.38977 0.696558 8.15934 0.000104219 10 0Z" fill="currentColor"/>
<path d="M12.8571 16.8C14.7515 16.8 16.5684 17.5375 17.9079 18.8503C19.2475 20.163 20 21.9435 20 23.8V25.2C20 25.9426 19.699 26.6548 19.1632 27.1799C18.6273 27.705 17.9006 28 17.1429 28H2.85714C2.09938 28 1.37266 27.705 0.836838 27.1799C0.301019 26.6548 0 25.9426 0 25.2V23.8C0 21.9435 0.752549 20.163 2.09209 18.8503C3.43164 17.5375 5.24845 16.8 7.14286 16.8H12.8571Z" fill="currentColor"/>
<path d="M10 0C11.4127 0 12.7937 0.410543 13.9684 1.17971C15.143 1.94888 16.0585 3.04213 16.5991 4.32122C17.1398 5.6003 17.2812 7.00776 17.0056 8.36563C16.73 9.7235 16.0497 10.9708 15.0508 11.9497C14.0518 12.9287 12.7791 13.5954 11.3935 13.8655C10.0079 14.1356 8.57173 13.997 7.26655 13.4672C5.96136 12.9373 4.8458 12.0401 4.06093 10.889C3.27606 9.73785 2.85714 8.38447 2.85714 7L2.86429 6.6962C2.94417 4.89405 3.73087 3.19169 5.06032 1.94412C6.38977 0.696558 8.15934 0.000104219 10 0Z" stroke="none"/>
<path d="M12.8571 16.8C14.7515 16.8 16.5684 17.5375 17.9079 18.8503C19.2475 20.163 20 21.9435 20 23.8V25.2C20 25.9426 19.699 26.6548 19.1632 27.1799C18.6273 27.705 17.9006 28 17.1429 28H2.85714C2.09938 28 1.37266 27.705 0.836838 27.1799C0.301019 26.6548 0 25.9426 0 25.2V23.8C0 21.9435 0.752549 20.163 2.09209 18.8503C3.43164 17.5375 5.24845 16.8 7.14286 16.8H12.8571Z" stroke="none"/>
</svg>
