<svg width="20" height="20" viewBox="0 0 20 20" fill="none" xmlns="http://www.w3.org/2000/svg">
<path d="M12 5.5V3.25C12 2.65326 11.7893 2.08097 11.4142 1.65901C11.0391 1.23705 10.5304 1 10 1H3C2.46957 1 1.96086 1.23705 1.58579 1.65901C1.21071 2.08097 1 2.65326 1 3.25V16.75C1 17.3467 1.21071 17.919 1.58579 18.341C1.96086 18.7629 2.46957 19 3 19H10C10.5304 19 11.0391 18.7629 11.4142 18.341C11.7893 17.919 12 17.3467 12 16.75V14.5M7 10H19M19 10L16 6.625M19 10L16 13.375" stroke="currentColor" stroke-width="1.5" stroke-linecap="round" stroke-linejoin="round"/>
</svg>
