<svg width="21" height="21" viewBox="0 0 21 21" fill="currentColor" xmlns="http://www.w3.org/2000/svg">
<g clip-path="url(#clip0_60_895)">
<path d="M8.16667 0H1.16667C0.857247 0 0.560501 0.122916 0.341709 0.341709C0.122916 0.560501 0 0.857247 0 1.16667V8.16667C0 8.47609 0.122916 8.77283 0.341709 8.99162C0.560501 9.21042 0.857247 9.33333 1.16667 9.33333H8.16667C8.47609 9.33333 8.77283 9.21042 8.99162 8.99162C9.21042 8.77283 9.33333 8.47609 9.33333 8.16667V1.16667C9.33333 0.857247 9.21042 0.560501 8.99162 0.341709C8.77283 0.122916 8.47609 0 8.16667 0Z" fill="currentColor"/>
<path d="M19.8333 0H12.8333C12.5239 0 12.2271 0.122916 12.0083 0.341709C11.7895 0.560501 11.6666 0.857247 11.6666 1.16667V8.16667C11.6666 8.47609 11.7895 8.77283 12.0083 8.99162C12.2271 9.21042 12.5239 9.33333 12.8333 9.33333H19.8333C20.1427 9.33333 20.4395 9.21042 20.6583 8.99162C20.877 8.77283 21 8.47609 21 8.16667V1.16667C21 0.857247 20.877 0.560501 20.6583 0.341709C20.4395 0.122916 20.1427 0 19.8333 0Z" fill="currentColor"/>
<path d="M8.16667 11.6667H1.16667C0.857247 11.6667 0.560501 11.7896 0.341709 12.0084C0.122916 12.2272 0 12.5239 0 12.8333V19.8333C0 20.1427 0.122916 20.4395 0.341709 20.6583C0.560501 20.8771 0.857247 21 1.16667 21H8.16667C8.47609 21 8.77283 20.8771 8.99162 20.6583C9.21042 20.4395 9.33333 20.1427 9.33333 19.8333V12.8333C9.33333 12.5239 9.21042 12.2272 8.99162 12.0084C8.77283 11.7896 8.47609 11.6667 8.16667 11.6667Z" fill="currentColor"/>
<path d="M16.3333 11.6667C17.2463 11.6667 18.1393 11.9345 18.9016 12.437C19.664 12.9395 20.2621 13.6546 20.6221 14.4937C20.982 15.3328 21.0879 16.2591 20.9266 17.1577C20.7653 18.0564 20.3439 18.888 19.7146 19.5496C19.0853 20.2112 18.2758 20.6736 17.3863 20.8796C16.4968 21.0857 15.5664 21.0262 14.7104 20.7087C13.8543 20.3912 13.1102 19.8295 12.5703 19.0933C12.0303 18.357 11.7181 17.4786 11.6725 16.5667L11.6666 16.3333L11.6725 16.1C11.7323 14.9042 12.2495 13.7772 13.117 12.952C13.9845 12.1268 15.136 11.6667 16.3333 11.6667Z" fill="currentColor"/>
</g>
<defs>
<clipPath id="clip0_60_895">
<rect width="21" height="21"/>
</clipPath>
</defs>
</svg>